<svg width="335" height="59" viewBox="0 0 335 59" fill="none" xmlns="http://www.w3.org/2000/svg">
<path d="M86.18 40L85.82 36.76C84.605 39.1 82.175 40.495 78.89 40.495C74.075 40.495 69.215 36.715 69.215 29.425C69.215 22.135 74.075 18.4 78.89 18.4C82.04 18.4 84.425 19.705 85.685 21.865V9.31H91.355V40H86.18ZM80.375 35.5C83.03 35.5 85.73 33.52 85.73 29.425C85.73 25.33 83.03 23.395 80.375 23.395C77.27 23.395 74.84 25.645 74.84 29.425C74.84 33.205 77.27 35.5 80.375 35.5ZM104.444 40.495C97.874 40.495 93.464 35.815 93.464 29.425C93.464 23.08 97.964 18.4 104.309 18.4C110.474 18.4 114.929 23.125 114.929 29.425C114.929 30.235 114.929 30.55 114.839 31.36H98.864C99.539 34.24 101.564 35.77 104.309 35.77C106.784 35.77 108.179 35.095 109.034 33.61H114.299C112.994 38.29 108.719 40.495 104.444 40.495ZM98.819 27.4H109.574C109.214 24.925 107.054 23.125 104.309 23.125C101.474 23.125 99.449 24.835 98.819 27.4ZM121.746 40L113.691 18.85H119.676L123.366 29.65C123.726 30.82 124.176 32.17 124.356 33.07H124.446C124.671 32.17 125.076 30.82 125.481 29.65L129.171 18.85H135.201L127.146 40H121.746Z" fill="#292C35"/>
<path d="M145.032 40.495C138.462 40.495 134.052 35.815 134.052 29.425C134.052 23.08 138.552 18.4 144.897 18.4C151.062 18.4 155.517 23.125 155.517 29.425C155.517 30.235 155.517 30.55 155.427 31.36H139.452C140.127 34.24 142.152 35.77 144.897 35.77C147.372 35.77 148.767 35.095 149.622 33.61H154.887C153.582 38.29 149.307 40.495 145.032 40.495ZM139.407 27.4H150.162C149.802 24.925 147.642 23.125 144.897 23.125C142.062 23.125 140.037 24.835 139.407 27.4ZM168.779 40L164.774 32.305L160.724 40H153.839L160.859 29.065L153.839 18.85H160.724L164.774 26.05L168.779 18.85H175.709L168.689 29.065L175.709 40H168.779ZM189.302 40.495C186.242 40.495 183.902 39.145 182.552 36.805V48.865H176.882V18.85H181.922L182.417 22.315C183.722 19.84 186.152 18.4 189.302 18.4C194.162 18.4 199.022 22.135 199.022 29.425C199.022 36.715 194.162 40.495 189.302 40.495ZM187.862 35.5C191.012 35.5 193.397 33.205 193.397 29.425C193.397 25.735 191.012 23.395 187.862 23.395C185.297 23.395 182.507 25.465 182.507 29.425C182.507 33.61 185.207 35.5 187.862 35.5ZM210.176 40.495C203.606 40.495 199.196 35.815 199.196 29.425C199.196 23.08 203.696 18.4 210.041 18.4C216.206 18.4 220.661 23.125 220.661 29.425C220.661 30.235 220.661 30.55 220.571 31.36H204.596C205.271 34.24 207.296 35.77 210.041 35.77C212.516 35.77 213.911 35.095 214.766 33.61H220.031C218.726 38.29 214.451 40.495 210.176 40.495ZM204.551 27.4H215.306C214.946 24.925 212.786 23.125 210.041 23.125C207.206 23.125 205.181 24.835 204.551 27.4ZM222.068 27.535C222.068 22.45 225.038 18.4 230.978 18.4C232.058 18.4 232.868 18.49 233.813 18.715V23.845L232.283 23.8C229.133 23.8 227.783 25.24 227.783 28.165V40H222.068V27.535ZM235.155 40V18.85H240.825V40H235.155ZM237.99 15.475C236.01 15.475 234.39 13.945 234.39 12.01C234.39 10.075 236.01 8.5 237.99 8.5C239.925 8.5 241.545 10.075 241.545 12.01C241.545 13.945 239.925 15.475 237.99 15.475ZM253.216 40.495C246.646 40.495 242.236 35.815 242.236 29.425C242.236 23.08 246.736 18.4 253.081 18.4C259.246 18.4 263.701 23.125 263.701 29.425C263.701 30.235 263.701 30.55 263.611 31.36H247.636C248.311 34.24 250.336 35.77 253.081 35.77C255.556 35.77 256.951 35.095 257.806 33.61H263.071C261.766 38.29 257.491 40.495 253.216 40.495ZM247.591 27.4H258.346C257.986 24.925 255.826 23.125 253.081 23.125C250.246 23.125 248.221 24.835 247.591 27.4ZM265.108 27.985C265.108 22.405 268.663 18.4 275.008 18.4C281.308 18.4 284.863 22.405 284.863 27.985V40H279.193V28.435C279.193 25.33 277.798 23.395 275.008 23.395C272.218 23.395 270.823 25.33 270.823 28.435V40H265.108V27.985ZM297.412 40.495C290.977 40.495 286.252 35.77 286.252 29.425C286.252 23.08 290.977 18.4 297.412 18.4C302.902 18.4 306.952 21.685 307.807 26.545H302.272C301.462 24.52 299.842 23.395 297.547 23.395C294.262 23.395 291.877 25.87 291.877 29.425C291.877 32.98 294.262 35.5 297.547 35.5C299.842 35.5 301.417 34.375 302.272 32.305H307.807C306.952 37.165 302.902 40.495 297.412 40.495ZM318.976 40.495C312.406 40.495 307.996 35.815 307.996 29.425C307.996 23.08 312.496 18.4 318.841 18.4C325.006 18.4 329.461 23.125 329.461 29.425C329.461 30.235 329.461 30.55 329.371 31.36H313.396C314.071 34.24 316.096 35.77 318.841 35.77C321.316 35.77 322.711 35.095 323.566 33.61H328.831C327.526 38.29 323.251 40.495 318.976 40.495ZM313.351 27.4H324.106C323.746 24.925 321.586 23.125 318.841 23.125C316.006 23.125 313.981 24.835 313.351 27.4Z" fill="#7251F8"/>
<path fill-rule="evenodd" clip-rule="evenodd" d="M331.5 14.562C333.257 14.562 334.682 13.163 334.682 11.4372C334.682 9.71148 333.257 8.31248 331.5 8.31248C329.743 8.31248 328.318 9.71148 328.318 11.4372C328.318 13.163 329.743 14.562 331.5 14.562ZM331.5 14.8745C333.433 14.8745 335 13.3356 335 11.4372C335 9.53891 333.433 8 331.5 8C329.567 8 328 9.53891 328 11.4372C328 13.3356 329.567 14.8745 331.5 14.8745Z" fill="#292C35"/>
<path d="M330.395 9.98999H331.452C331.669 9.98999 331.855 10.0231 332.011 10.0894C332.168 10.1557 332.289 10.2537 332.374 10.3836C332.458 10.5135 332.5 10.6732 332.5 10.8627C332.5 11.0178 332.474 11.151 332.422 11.2623C332.372 11.3723 332.3 11.4644 332.206 11.5386C332.114 11.6115 332.005 11.6698 331.881 11.7136L331.696 11.813H330.777L330.773 11.3478H331.456C331.559 11.3478 331.644 11.3292 331.711 11.2921C331.779 11.255 331.83 11.2033 331.863 11.1371C331.898 11.0708 331.916 10.9939 331.916 10.9065C331.916 10.8137 331.899 10.7335 331.865 10.6659C331.831 10.5983 331.78 10.5466 331.711 10.5108C331.643 10.4751 331.556 10.4572 331.452 10.4572H330.979V12.8845H330.395V9.98999ZM331.98 12.8845L331.334 11.5943L331.951 11.5903L332.605 12.8567V12.8845H331.98Z" fill="#292C35"/>
</svg>
