<svg width="266" height="41" viewBox="0 0 266 41" fill="none" xmlns="http://www.w3.org/2000/svg">
<path d="M16.965 32L16.605 28.76C15.39 31.1 12.96 32.495 9.675 32.495C4.86 32.495 0 28.715 0 21.425C0 14.135 4.86 10.4 9.675 10.4C12.825 10.4 15.21 11.705 16.47 13.865V1.31H22.14V32H16.965ZM11.16 27.5C13.815 27.5 16.515 25.52 16.515 21.425C16.515 17.33 13.815 15.395 11.16 15.395C8.055 15.395 5.625 17.645 5.625 21.425C5.625 25.205 8.055 27.5 11.16 27.5Z" fill="#292C35"/>
<path d="M35.229 32.495C28.659 32.495 24.249 27.815 24.249 21.425C24.249 15.08 28.749 10.4 35.094 10.4C41.259 10.4 45.714 15.125 45.714 21.425C45.714 22.235 45.714 22.55 45.624 23.36H29.649C30.324 26.24 32.349 27.77 35.094 27.77C37.569 27.77 38.964 27.095 39.819 25.61H45.084C43.779 30.29 39.504 32.495 35.229 32.495ZM29.604 19.4H40.359C39.999 16.925 37.839 15.125 35.094 15.125C32.259 15.125 30.234 16.835 29.604 19.4Z" fill="#292C35"/>
<path d="M52.5308 32L44.4758 10.85H50.4608L54.1508 21.65C54.5108 22.82 54.9608 24.17 55.1408 25.07H55.2308C55.4558 24.17 55.8608 22.82 56.2658 21.65L59.9558 10.85H65.9858L57.9308 32H52.5308Z" fill="#292C35"/>
<path d="M75.8169 32.495C69.2469 32.495 64.8369 27.815 64.8369 21.425C64.8369 15.08 69.3369 10.4 75.6819 10.4C81.8469 10.4 86.3019 15.125 86.3019 21.425C86.3019 22.235 86.3019 22.55 86.2119 23.36H70.2369C70.9119 26.24 72.9369 27.77 75.6819 27.77C78.1569 27.77 79.5519 27.095 80.4069 25.61H85.6719C84.3669 30.29 80.0919 32.495 75.8169 32.495ZM70.1919 19.4H80.9469C80.5869 16.925 78.4269 15.125 75.6819 15.125C72.8469 15.125 70.8219 16.835 70.1919 19.4Z" fill="#7251F8"/>
<path d="M99.5643 32L95.5593 24.305L91.5093 32H84.6243L91.6443 21.065L84.6243 10.85H91.5093L95.5593 18.05L99.5643 10.85H106.494L99.4743 21.065L106.494 32H99.5643Z" fill="#7251F8"/>
<path d="M120.087 32.495C117.027 32.495 114.687 31.145 113.337 28.805V40.865H107.667V10.85H112.707L113.202 14.315C114.507 11.84 116.937 10.4 120.087 10.4C124.947 10.4 129.807 14.135 129.807 21.425C129.807 28.715 124.947 32.495 120.087 32.495ZM118.647 27.5C121.797 27.5 124.182 25.205 124.182 21.425C124.182 17.735 121.797 15.395 118.647 15.395C116.082 15.395 113.292 17.465 113.292 21.425C113.292 25.61 115.992 27.5 118.647 27.5Z" fill="#7251F8"/>
<path d="M140.961 32.495C134.391 32.495 129.981 27.815 129.981 21.425C129.981 15.08 134.481 10.4 140.826 10.4C146.991 10.4 151.446 15.125 151.446 21.425C151.446 22.235 151.446 22.55 151.356 23.36H135.381C136.056 26.24 138.081 27.77 140.826 27.77C143.301 27.77 144.696 27.095 145.551 25.61H150.816C149.511 30.29 145.236 32.495 140.961 32.495ZM135.336 19.4H146.091C145.731 16.925 143.571 15.125 140.826 15.125C137.991 15.125 135.966 16.835 135.336 19.4Z" fill="#7251F8"/>
<path d="M152.853 19.535C152.853 14.45 155.823 10.4 161.763 10.4C162.843 10.4 163.653 10.49 164.598 10.715V15.845L163.068 15.8C159.918 15.8 158.568 17.24 158.568 20.165V32H152.853V19.535Z" fill="#7251F8"/>
<path d="M165.94 32V10.85H171.61V32H165.94ZM168.775 7.475C166.795 7.475 165.175 5.945 165.175 4.01C165.175 2.075 166.795 0.499998 168.775 0.499998C170.71 0.499998 172.33 2.075 172.33 4.01C172.33 5.945 170.71 7.475 168.775 7.475Z" fill="#7251F8"/>
<path d="M184.001 32.495C177.431 32.495 173.021 27.815 173.021 21.425C173.021 15.08 177.521 10.4 183.866 10.4C190.031 10.4 194.486 15.125 194.486 21.425C194.486 22.235 194.486 22.55 194.396 23.36H178.421C179.096 26.24 181.121 27.77 183.866 27.77C186.341 27.77 187.736 27.095 188.591 25.61H193.856C192.551 30.29 188.276 32.495 184.001 32.495ZM178.376 19.4H189.131C188.771 16.925 186.611 15.125 183.866 15.125C181.031 15.125 179.006 16.835 178.376 19.4Z" fill="#7251F8"/>
<path d="M195.893 19.985C195.893 14.405 199.448 10.4 205.793 10.4C212.093 10.4 215.648 14.405 215.648 19.985V32H209.978V20.435C209.978 17.33 208.583 15.395 205.793 15.395C203.003 15.395 201.608 17.33 201.608 20.435V32H195.893V19.985Z" fill="#7251F8"/>
<path d="M228.197 32.495C221.762 32.495 217.037 27.77 217.037 21.425C217.037 15.08 221.762 10.4 228.197 10.4C233.687 10.4 237.737 13.685 238.592 18.545H233.057C232.247 16.52 230.627 15.395 228.332 15.395C225.047 15.395 222.662 17.87 222.662 21.425C222.662 24.98 225.047 27.5 228.332 27.5C230.627 27.5 232.202 26.375 233.057 24.305H238.592C237.737 29.165 233.687 32.495 228.197 32.495Z" fill="#7251F8"/>
<path d="M249.761 32.495C243.191 32.495 238.781 27.815 238.781 21.425C238.781 15.08 243.281 10.4 249.626 10.4C255.791 10.4 260.246 15.125 260.246 21.425C260.246 22.235 260.246 22.55 260.156 23.36H244.181C244.856 26.24 246.881 27.77 249.626 27.77C252.101 27.77 253.496 27.095 254.351 25.61H259.616C258.311 30.29 254.036 32.495 249.761 32.495ZM244.136 19.4H254.891C254.531 16.925 252.371 15.125 249.626 15.125C246.791 15.125 244.766 16.835 244.136 19.4Z" fill="#7251F8"/>
<path fill-rule="evenodd" clip-rule="evenodd" d="M262.285 6.56201C264.042 6.56201 265.467 5.163 265.467 3.43724C265.467 1.71148 264.042 0.312476 262.285 0.312476C260.528 0.312476 259.103 1.71148 259.103 3.43724C259.103 5.163 260.528 6.56201 262.285 6.56201ZM262.285 6.87448C264.218 6.87448 265.785 5.33558 265.785 3.43724C265.785 1.5389 264.218 0 262.285 0C260.352 0 258.785 1.5389 258.785 3.43724C258.785 5.33558 260.352 6.87448 262.285 6.87448Z" fill="#292C35"/>
<path d="M261.18 1.99H262.237C262.454 1.99 262.64 2.02314 262.796 2.0894C262.953 2.15567 263.074 2.25374 263.159 2.38363C263.243 2.51351 263.285 2.67321 263.285 2.86273C263.285 3.0178 263.259 3.15099 263.207 3.26232C263.157 3.37232 263.085 3.46443 262.991 3.53865C262.899 3.61154 262.79 3.66986 262.666 3.71359L262.481 3.81299H261.562L261.558 3.3478H262.241C262.344 3.3478 262.429 3.32925 262.496 3.29214C262.564 3.25503 262.615 3.20334 262.648 3.13708C262.683 3.07081 262.701 2.99394 262.701 2.90647C262.701 2.8137 262.684 2.73351 262.65 2.66592C262.616 2.59833 262.565 2.54664 262.496 2.51086C262.428 2.47507 262.341 2.45718 262.237 2.45718H261.764V4.88452H261.18V1.99ZM262.765 4.88452L262.119 3.59432L262.736 3.59034L263.39 4.85669V4.88452H262.765Z" fill="#292C35"/>
</svg>
