<svg width="28" height="28" viewBox="0 0 28 28" fill="none" xmlns="http://www.w3.org/2000/svg">
<path fill-rule="evenodd" clip-rule="evenodd" d="M7 0C3.13403 0 0 3.13403 0 7V21C0 24.866 3.13403 28 7 28H21C24.866 28 28 24.866 28 21V7C28 3.13403 24.866 0 21 0H7ZM14.6 7C14.6 6.44769 15.0477 6 15.6 6C16.1523 6 16.6 6.44769 16.6 7V17.4C16.6 17.9523 16.1523 18.4 15.6 18.4C15.0477 18.4 14.6 17.9523 14.6 17.4V7ZM11 10.6C11 10.0477 11.4477 9.59998 12 9.59998C12.5523 9.59998 13 10.0477 13 10.6V21C13 21.5523 12.5523 22 12 22C11.4477 22 11 21.5523 11 21V10.6Z" fill="#757EFF"/>
</svg>
