<svg
  xmlns="http://www.w3.org/2000/svg"
  version="1.1"
  xmlns:xlink="http://www.w3.org/1999/xlink"
  width="218"
  height="218"
><svg
    width="218"
    height="218"
    viewBox="0 0 218 218"
    fill="none"
    xmlns="http://www.w3.org/2000/svg"
  >
<g filter="url(#filter0_f_98_86)">
<rect
        x="5"
        y="5"
        width="208"
        height="208"
        rx="47"
        fill="#A7A7A7"
        fill-opacity="0.08"
      />
</g>
<rect x="19" y="20" width="180" height="180" rx="42" fill="#F9F8FA" />
<path
      fillRule="evenodd"
      clipRule="evenodd"
      d="M91.0232 66.8343C94.5922 68.3776 96.8903 71.8076 96.8903 75.5911L96.8903 106.691L122.015 82.3729C124.849 79.6299 129.111 78.8093 132.814 80.2938C136.516 81.7783 138.931 85.2755 138.931 89.1547L138.931 126.302L147.92 120.982C152.589 118.218 158.688 119.641 161.543 124.16C164.398 128.679 162.928 134.583 158.259 137.346L134.191 151.591C131.133 153.402 127.303 153.472 124.176 151.775C121.049 150.078 119.113 146.879 119.113 143.409L119.113 112.309L93.988 136.627C91.1541 139.37 86.892 140.191 83.1893 138.706C79.4866 137.222 77.0723 133.725 77.0723 129.845L77.0723 97.0589L70.5207 102.739C66.4445 106.274 60.1799 105.94 56.5284 101.995C52.8769 98.0496 53.2212 91.9861 57.2975 88.4519L80.3697 68.4473C83.2813 65.9228 87.4542 65.291 91.0232 66.8343Z"
      fill="#515151"
    />
<defs>
<filter
        id="SvgjsFilter1003"
        x="0.0999999"
        y="0.0999999"
        width="217.8"
        height="217.8"
        filterUnits="userSpaceOnUse"
        color-interpolation-filters="sRGB"
      >
<feFlood flood-opacity="0" result="BackgroundImageFix" />
<feBlend
          mode="normal"
          in="SourceGraphic"
          in2="BackgroundImageFix"
          result="shape"
        />
<feGaussianBlur stdDeviation="2.45" result="effect1_foregroundBlur_98_86" />
</filter>
</defs>
</svg><style>@media (prefers-color-scheme: light) { :root { filter: none; } }
@media (prefers-color-scheme: dark) { :root { filter: none; } }
</style></svg>
